<svg width="55" height="63" viewBox="0 0 55 63" fill="none" xmlns="http://www.w3.org/2000/svg">
<g clip-path="url(#clip0_3_64)">
<path d="M54.9 18.0003C54.8817 21.4618 54.9917 24.9233 54.5331 28.3667C53.029 39.5711 48.0031 48.8626 39.2903 56.1501C36.0253 58.8829 32.4301 61.0873 28.5231 62.7634C27.771 63.0914 27.1107 63.0549 26.3586 62.7452C21.6628 60.7229 17.4623 57.9719 13.7388 54.4922C6.23655 47.5144 1.88931 38.9152 0.440227 28.8586C0.1284 26.7452 0 24.5954 0 22.4638C0 18.3282 0 14.2108 0 10.0934C0 8.78164 0.403542 8.2533 1.6692 7.87071C9.90511 5.30188 18.141 2.75128 26.3769 0.182449C27.1107 -0.0543929 27.7893 -0.054393 28.5231 0.164231C36.7957 2.75128 45.0683 5.3201 53.3409 7.88893C54.4598 8.23508 54.8817 8.81808 54.8817 10.0023C54.9 12.6804 54.9 15.3403 54.9 18.0003ZM51.1764 19.6582C51.1764 16.4517 51.1581 14.065 51.1948 11.6784C51.1948 11.2412 51.0664 11.059 50.6445 10.9314C43.0872 8.59946 35.53 6.24925 27.9728 3.89905C27.6609 3.80796 27.3675 3.77152 27.0373 3.86261C19.425 6.23103 11.7944 8.59946 4.18216 10.9679C3.85199 11.059 3.70525 11.1865 3.70525 11.5691C3.77862 16.2148 3.5585 20.8606 3.83365 25.5063C4.2005 31.4456 5.79633 37.0569 8.71283 42.2675C12.95 49.8282 19.1682 55.312 26.9823 59.0286C27.3491 59.1926 27.6243 59.1561 27.9361 58.9922C30.4124 57.808 32.7969 56.4416 34.9981 54.8019C43.179 48.7351 48.2966 40.7189 50.3326 30.7715C51.1764 26.7999 51.2314 22.8282 51.1764 19.6582Z" fill="#020202"/>
<path d="M39.8589 26.8542C39.4921 23.9939 37.8779 21.9899 35.1265 21.0607C32.375 20.1316 29.8988 20.7692 27.826 22.7915C27.5142 23.1012 27.3675 23.0466 27.0923 22.7733C25.7166 21.3887 24.0474 20.7146 21.7729 20.6781C19.0765 20.8057 16.802 22.1538 15.6097 24.9231C14.4358 27.6923 14.876 30.334 16.9854 32.502C20.0854 35.6903 23.2954 38.7692 26.4503 41.8846C27.074 42.4858 27.8627 42.504 28.468 41.9028C31.6413 38.7874 34.8146 35.6721 37.9513 32.5202C39.5104 30.9717 40.134 29.0223 39.8589 26.8542ZM26.8172 35.9453C25.6799 35.2895 24.5977 34.67 23.4971 34.0506C23.3871 33.9959 23.3687 33.9049 23.3687 33.7955C23.3687 32.6296 23.3687 31.4636 23.3687 30.2976C23.3687 30.1154 23.3871 30.0607 23.5705 30.17C24.5977 30.7713 25.6249 31.3542 26.6521 31.9372C26.7621 31.9919 26.7988 32.0648 26.7988 32.1741C26.8172 33.3947 26.8172 34.6336 26.8172 35.9453ZM27.2941 30.8623C26.2119 30.2429 25.148 29.6235 24.0291 28.9858C24.5427 28.6943 25.0196 28.4211 25.5148 28.1296C26.1018 27.7834 26.6888 27.4555 27.2757 27.1093C27.4041 27.0364 27.4959 27.0182 27.6243 27.0911C28.7065 27.7105 29.7704 28.33 30.8893 28.9676C29.7704 29.6053 28.6881 30.2247 27.6059 30.8441C27.4959 30.9352 27.4041 30.917 27.2941 30.8623ZM31.3662 34.0688C30.284 34.6883 29.2201 35.3077 28.0645 35.9636C28.0645 34.6518 28.0645 33.413 28.0645 32.1559C28.0645 32.0466 28.1195 31.9919 28.1929 31.9372C29.2568 31.336 30.3207 30.7166 31.4029 30.0972C31.4212 30.0972 31.4396 30.0972 31.4946 30.1154C31.4946 31.3542 31.4946 32.6113 31.4946 33.8502C31.4946 33.9595 31.4396 34.0142 31.3662 34.0688Z" fill="#783BE3"/>
</g>
<defs>
<clipPath id="clip0_3_64">
<rect width="54.9" height="63" fill="white"/>
</clipPath>
</defs>
</svg>